<svg version="1.0" xmlns="http://www.w3.org/2000/svg" width="668" style="transform:scale(1,1.001)" height="375.75" viewBox="0 0 320 180"><path d="M0 89.5V179h320V0H0v89.5zm165.7-41.9c2.3 2.4 2.5 3.1 2 8.6-.6 6.6.1 9.2 3 12.3 1 1.1 3.3 4.1 5.1 6.7 3.4 5 8.6 9.3 17.2 14.3 8.3 4.8 10 7.1 10 13.3 0 5.7-3.7 15.6-6.8 18-2.3 1.7-10.7 1.6-12.2-.3-1.6-1.9-1.7-8.7-.1-14.3 1.6-5.9.6-8.8-4-11.4-2.1-1.2-3.9-2.5-3.9-2.9 0-.4-2.4-1.3-5.3-1.9-4.6-1.1-5.8-1-8.5.4-1.7.9-3.9 3-4.7 4.6-1.5 2.8-1.4 3.4.5 7.8 1.2 2.6 3.3 6.3 4.9 8.2 8.5 10.7 10.1 13.8 10.1 19.4 0 4.2-.9 7.4-4 14.1-4.5 9.8-4.8 12.6-2 17.3 2.4 3.8 2.5 5.2.6 7.7-1.3 1.8-1.5 1.8-7.7.1-7.4-2.1-10.9-4.8-10.9-8.6 0-1.5 1.9-7 4.2-12.1 5.6-12.7 5.7-16.7.3-23.6-4-5.2-8.2-8.1-9.6-6.6-.4.4-.9 4-1.1 7.8-.2 5-1.1 8.7-2.9 12.5-1.5 3-3.2 6.6-3.8 8-1.6 3.3-3.4 6.5-4.8 8.2-.7.8-1.4 4.7-1.6 8.7-.5 7.7-1.3 9.1-5.4 9.1-4.4 0-6.3-3.3-6.3-10.7 0-5.6.6-8.1 3.6-14.8 2-4.4 4.2-9.5 5-11.3 1.9-4.4 1.8-17.2-.1-20.8-.8-1.6-1.5-5.4-1.6-8.4-.2-8.1-1-10.4-4.1-10.8-3.5-.4-6 2.4-10.9 12-3.8 7.6-5.5 9-8.5 7-2.1-1.4-3.6-5.5-3-8.2.6-3 8.3-15 9.7-15 1 0 19-18.5 20.4-20.9 1.6-3.1 8.2-7.8 11.8-8.5 2.5-.5 3.7-1.5 5-4.1.9-2 1.7-4.4 1.7-5.5 0-1 1.2-3.2 2.6-4.9 2.3-2.8 3.2-3.1 8-3.1 4.6 0 5.9.4 8.1 2.6z"/></svg>